<svg width="34" height="32" viewBox="0 0 34 32" fill="none" xmlns="http://www.w3.org/2000/svg">
<path d="M31.6632 0H6.38808C5.07539 0 4.05126 1.05876 4.05126 2.27744V13.8963H1.82759C0.860043 13.8963 0 14.6738 0 15.6774V27.4617C0 28.4046 0.797803 29.1877 1.77101 29.2428L1.42586 31.1894C1.3127 31.7463 1.94076 32.1875 2.44999 31.9118L7.58196 29.1877H18.5928C19.5603 29.1877 20.4204 28.4101 20.4204 27.4065V22.234H22.9892L30.8031 26.3478C30.9729 26.458 31.1426 26.458 31.1426 26.4029C31.5444 26.4029 31.8838 26.0665 31.8838 25.6805C31.8838 25.6254 31.9404 25.9011 31.3124 22.1789H31.6519C32.9646 22.1789 33.9887 21.1201 33.9887 19.9014V2.33259C33.9887 1.05325 32.9023 0 31.6519 0H31.6632ZM19.0002 27.4672C19.0002 27.6877 18.8304 27.8587 18.5984 27.8587H7.41787C7.30471 27.8587 7.19155 27.9138 7.07838 27.9138L3.08371 30.0259L3.31003 28.6362C3.36662 28.1896 3.02713 27.8035 2.6254 27.8035H1.82759C1.60126 27.8035 1.42586 27.6381 1.42586 27.412V15.6829C1.42586 15.4623 1.59561 15.2914 1.82759 15.2914H4.05126V19.9621C4.05126 21.2414 5.13763 22.2395 6.38808 22.2395H18.9945V27.4672H19.0002ZM32.5798 19.9621C32.5798 20.4639 32.1781 20.8499 31.6688 20.8499H30.4127C29.9544 20.8499 29.6149 21.2414 29.7281 21.6826L30.1864 24.4618L23.5663 20.9602C23.4532 20.905 23.34 20.9051 23.2268 20.9051H6.44467C5.92977 20.9051 5.5337 20.5135 5.5337 20.0172V2.33259C5.5337 1.83078 5.93543 1.44477 6.44467 1.44477H31.7141C32.229 1.44477 32.6251 1.83629 32.6251 2.33259L32.5685 19.9566L32.5798 19.9621Z" fill="white"/>
<path d="M24.7037 9.06055C23.5042 9.06055 22.5366 10.0035 22.5366 11.1726C22.5366 12.3416 23.5042 13.2846 24.7037 13.2846C25.9032 13.2846 26.8142 12.3416 26.8142 11.1726C26.8142 10.0035 25.9032 9.06055 24.7037 9.06055ZM24.7037 11.8398C24.302 11.8398 23.9625 11.5089 23.9625 11.1174C23.9625 10.7259 24.3076 10.395 24.7037 10.395C25.0998 10.395 25.3883 10.7259 25.3883 11.1174C25.3883 11.5089 25.1054 11.8398 24.7037 11.8398Z" fill="#5BFEC3"/>
<path d="M18.9947 9.06055C17.7952 9.06055 16.8276 10.0035 16.8276 11.1726C16.8276 12.3416 17.7952 13.2846 18.9947 13.2846C20.1943 13.2846 21.1618 12.3416 21.1618 11.1726C21.1618 10.0035 20.1943 9.06055 18.9947 9.06055ZM18.9947 11.8398C18.593 11.8398 18.2535 11.5089 18.2535 11.1174C18.2535 10.7259 18.593 10.395 18.9947 10.395C19.3964 10.395 19.7359 10.7259 19.7359 11.1174C19.7359 11.5089 19.3964 11.8398 18.9947 11.8398Z" fill="#5BFEC3"/>
<path d="M13.2911 9.06055C12.0916 9.06055 11.124 10.0035 11.124 11.1726C11.124 12.3416 12.0916 13.2846 13.2911 13.2846C14.4906 13.2846 15.4582 12.3416 15.4582 11.1726C15.4582 10.0035 14.4906 9.06055 13.2911 9.06055ZM13.2911 11.8398C12.8894 11.8398 12.5499 11.5089 12.5499 11.1174C12.5499 10.7259 12.8894 10.395 13.2911 10.395C13.6928 10.395 14.0323 10.7259 14.0323 11.1174C14.0323 11.5089 13.6872 11.8398 13.2911 11.8398Z" fill="#5BFEC3"/>
</svg>
