<svg width="41" height="37" viewBox="0 0 41 37" fill="none" xmlns="http://www.w3.org/2000/svg">
<path d="M36.8241 10.4843C37.0439 9.14038 36.1283 7.87353 34.7793 7.65467C33.4303 7.4358 32.1585 8.3478 31.9388 9.69169C31.7191 11.0356 32.6346 12.3024 33.9837 12.5213C35.3327 12.7402 36.6044 11.8281 36.8241 10.4843Z" stroke="#5BFEC3" stroke-width="1.2" stroke-miterlimit="10"/>
<path d="M28.9546 18.219C28.9546 16.0847 30.194 14.2386 31.9963 13.3604C32.702 13.7479 33.5192 13.9699 34.3852 13.9699C35.2512 13.9699 36.0644 13.7479 36.774 13.3604C38.5725 14.2425 39.8118 16.0847 39.8118 18.219" stroke="#5BFEC3" stroke-width="1.2" stroke-miterlimit="10" stroke-linecap="round"/>
<path d="M8.90357 27.9422C8.94317 26.5812 7.86771 25.4459 6.50146 25.4064C5.13522 25.367 3.99556 26.4383 3.95597 27.7993C3.91638 29.1604 4.99184 30.2956 6.35808 30.3351C7.72432 30.3745 8.86398 29.3032 8.90357 27.9422Z" stroke="white" stroke-width="1.2" stroke-miterlimit="10"/>
<path d="M1 36.0003C1 33.866 2.23938 32.0199 4.04175 31.1416C4.74745 31.5291 5.56458 31.7511 6.43058 31.7511C7.29657 31.7511 8.10979 31.5291 8.8194 31.1416C10.6179 32.0238 11.8572 33.866 11.8572 36.0003" stroke="white" stroke-width="1.2" stroke-miterlimit="10" stroke-linecap="round"/>
<path d="M23.378 28.0589C23.4826 26.7013 22.4627 25.5163 21.0999 25.4121C19.7371 25.3079 18.5475 26.3239 18.4429 27.6815C18.3382 29.0391 19.3582 30.2241 20.721 30.3284C22.0838 30.4326 23.2734 29.4165 23.378 28.0589Z" stroke="white" stroke-width="1.2" stroke-miterlimit="10"/>
<path d="M15.4814 36.0003C15.4814 33.866 16.7208 32.0199 18.5232 31.1416C19.2289 31.5291 20.046 31.7511 20.912 31.7511C21.778 31.7511 22.5912 31.5291 23.3008 31.1416C25.0993 32.0238 26.3387 33.866 26.3387 36.0003" stroke="white" stroke-width="1.2" stroke-miterlimit="10" stroke-linecap="round"/>
<path d="M37.1524 28.058C37.2571 26.7004 36.2371 25.5153 34.8743 25.4111C33.5115 25.3069 32.3219 26.3229 32.2173 27.6805C32.1126 29.0381 33.1326 30.2232 34.4954 30.3274C35.8582 30.4316 37.0478 29.4155 37.1524 28.058Z" stroke="white" stroke-width="1.2" stroke-miterlimit="10"/>
<path d="M29.2573 36.0003C29.2573 33.866 30.4967 32.0199 32.2991 31.1416C33.0048 31.5291 33.8219 31.7511 34.6879 31.7511C35.5539 31.7511 36.3671 31.5291 37.0767 31.1416C38.8752 32.0238 40.1146 33.866 40.1146 36.0003" stroke="white" stroke-width="1.2" stroke-miterlimit="10" stroke-linecap="round"/>
<path d="M3.65088 2.87598H25.209V17.0606C25.209 17.6896 24.6968 18.1998 24.0654 18.1998H4.79447C4.16305 18.1998 3.65088 17.6896 3.65088 17.0606V2.87598Z" stroke="white" stroke-width="1.2" stroke-miterlimit="10"/>
<path d="M9.28125 15.3633H22.3103" stroke="#5BFEC3" stroke-width="1.2" stroke-miterlimit="10"/>
<path d="M20.3257 7.625H18.0444V15.3639H20.3257V7.625Z" stroke="#5BFEC3" stroke-width="1.2" stroke-miterlimit="10"/>
<path d="M18.0425 9.03027H15.7612V15.3631H18.0425V9.03027Z" stroke="#5BFEC3" stroke-width="1.2" stroke-miterlimit="10"/>
<path d="M15.7608 10.3896H13.4795V15.3632H15.7608V10.3896Z" stroke="#5BFEC3" stroke-width="1.2" stroke-miterlimit="10"/>
<path d="M13.4796 11.5938H11.1982V15.3639H13.4796V11.5938Z" stroke="#5BFEC3" stroke-width="1.2" stroke-miterlimit="10"/>
<path d="M27.467 1H1.25244V2.87727H27.467V1Z" stroke="white" stroke-width="1.2" stroke-miterlimit="10"/>
</svg>
