<svg width="39" height="32" viewBox="0 0 39 32" fill="none" xmlns="http://www.w3.org/2000/svg">
<path d="M35.2858 2.53352H28.7182C28.7182 3.07735 28.6755 3.199 28.6755 3.59971H34.7521V22.9342H4.24087V3.59971H10.1752C10.1752 3.199 10.161 3.07735 10.161 2.53352H3.71433C3.42259 2.53352 3.18066 2.76966 3.18066 3.0702V23.4709C3.18066 23.7643 3.41548 24.0076 3.71433 24.0076H35.2858C35.5775 24.0076 35.8194 23.7714 35.8194 23.4709V3.06304C35.8194 2.76966 35.5846 2.52637 35.2858 2.52637V2.53352Z" fill="white"/>
<path d="M32.3895 5.10938H28.3693V6.17556H31.863V20.3509H7.13666V6.17556H10.5734V5.10938H6.603C6.31126 5.10938 6.06934 5.34551 6.06934 5.64605V20.8876C6.06934 21.1809 6.30415 21.4242 6.603 21.4242H32.3824C32.6742 21.4242 32.9161 21.1881 32.9161 20.8876V5.64605C32.9161 5.35267 32.6813 5.10938 32.3824 5.10938H32.3895Z" fill="white"/>
<path d="M38.4661 29.2234H0.53346C0.341341 29.2234 0.163454 29.1161 0.0709527 28.9515C-0.0215487 28.7797 -0.0215487 28.5794 0.0780682 28.4148L3.25869 23.1912C3.35831 23.0338 3.52908 22.9336 3.71408 22.9336H35.2855C35.4705 22.9336 35.6413 23.0266 35.7409 23.1912L38.9215 28.4148C39.0211 28.5794 39.0283 28.7869 38.9286 28.9515C38.8361 29.1232 38.6583 29.2234 38.4661 29.2234ZM1.47982 28.1572H37.5198L34.9867 23.9998H4.00582L1.4727 28.1572H1.47982Z" fill="white"/>
<path d="M38.4663 32.0001H0.533662C0.241927 32.0001 0 31.764 0 31.4635V28.6871C0 28.3937 0.234811 28.1504 0.533662 28.1504H38.4663C38.7581 28.1504 39 28.3865 39 28.6871V31.4635C39 31.7568 38.7652 32.0001 38.4663 32.0001ZM1.06021 30.9339H37.9327V29.2237H1.06021V30.9339Z" fill="white"/>
<path d="M28.2839 21.4168H10.6801C10.3884 21.4168 10.1465 21.1807 10.1465 20.8801V0.536673C10.1465 0.243292 10.3813 0 10.6801 0H28.2839C28.5756 0 28.8175 0.236136 28.8175 0.536673V20.8873C28.8175 21.1807 28.5827 21.424 28.2839 21.424V21.4168ZM11.2067 20.3506H27.7502V1.06619H11.2138V20.3506H11.2067Z" fill="white"/>
<path d="M24.8543 9.37413H14.1455C13.8537 9.37413 13.6118 9.13799 13.6118 8.83745C13.6118 8.53692 13.8466 8.30078 14.1455 8.30078H24.8543C25.146 8.30078 25.388 8.53692 25.388 8.83745C25.388 9.13799 25.1531 9.37413 24.8543 9.37413Z" fill="#5BFEC3"/>
<path d="M24.8543 11.9855H14.1455C13.8537 11.9855 13.6118 11.7493 13.6118 11.4488C13.6118 11.1482 13.8466 10.9121 14.1455 10.9121H24.8543C25.146 10.9121 25.388 11.1482 25.388 11.4488C25.388 11.7493 25.1531 11.9855 24.8543 11.9855Z" fill="#5BFEC3"/>
<path d="M24.8543 14.6046H14.1455C13.8537 14.6046 13.6118 14.3685 13.6118 14.0679C13.6118 13.7674 13.8466 13.5312 14.1455 13.5312H24.8543C25.146 13.5312 25.388 13.7674 25.388 14.0679C25.388 14.3685 25.1531 14.6046 24.8543 14.6046Z" fill="#5BFEC3"/>
<path d="M24.8543 17.2169H14.1455C13.8537 17.2169 13.6118 16.9808 13.6118 16.6802C13.6118 16.3797 13.8466 16.1436 14.1455 16.1436H24.8543C25.146 16.1436 25.388 16.3797 25.388 16.6802C25.388 16.9808 25.1531 17.2169 24.8543 17.2169Z" fill="#5BFEC3"/>
<path d="M12.4023 4.34311C12.4023 3.47013 13.0499 2.76172 13.982 2.76172C14.5512 2.76172 14.8928 2.95492 15.1703 3.22684L14.7505 3.72057C14.5156 3.5059 14.2808 3.3771 13.9749 3.3771C13.4626 3.3771 13.0997 3.79929 13.0997 4.32165C13.0997 4.85116 13.4554 5.28766 13.9749 5.28766C14.3164 5.28766 14.5299 5.1517 14.7718 4.92988L15.1916 5.35921C14.8785 5.69553 14.537 5.90304 13.9535 5.90304C13.0641 5.90304 12.4023 5.2161 12.4023 4.34311Z" fill="#5BFEC3"/>
<path d="M16.3088 4.65052L15.1489 2.81152H15.9245L16.6432 4.02798L17.3761 2.81152H18.1303L16.9705 4.63621V5.84551H16.3088V4.65052Z" fill="#5BFEC3"/>
<path d="M18.3364 2.81152H19.7382C20.0868 2.81152 20.3572 2.90455 20.528 3.08344C20.6632 3.21939 20.7343 3.39113 20.7343 3.59864C20.7343 3.94927 20.5565 4.14247 20.3359 4.26412C20.6845 4.40007 20.9051 4.60043 20.9051 5.0083C20.9051 5.5736 20.4568 5.85267 19.7738 5.85267H18.3364V2.81152ZM19.5959 4.04229C19.8876 4.04229 20.0726 3.94927 20.0726 3.72029C20.0726 3.51278 19.9161 3.39829 19.6386 3.39829H18.9839V4.04229H19.5959ZM19.7738 5.26591C20.0655 5.26591 20.2434 5.15857 20.2434 4.93675C20.2434 4.72208 20.094 4.60043 19.7524 4.60043H18.9839V5.26591H19.7738Z" fill="#5BFEC3"/>
<path d="M21.2324 2.81152H23.5094V3.40544H21.887V4.02083H23.3101V4.61474H21.887V5.2516H23.5307V5.84551H21.2324V2.81152Z" fill="#5BFEC3"/>
<path d="M23.9082 2.81152H25.2886C25.6728 2.81152 25.9717 2.91886 26.1709 3.11922C26.3417 3.29095 26.4271 3.52709 26.4271 3.81331C26.4271 4.31421 26.1638 4.6219 25.7796 4.76501L26.5196 5.85267H25.744L25.0965 4.8795H24.5771V5.85267H23.9153V2.81152H23.9082ZM25.2459 4.28558C25.5732 4.28558 25.7582 4.11385 25.7582 3.85625C25.7582 3.56286 25.559 3.4126 25.2388 3.4126H24.5771V4.28558H25.253H25.2459Z" fill="#5BFEC3"/>
</svg>
