<?xml version="1.0" encoding="UTF-8"?>
<svg id="Calque_2" data-name="Calque 2" xmlns="http://www.w3.org/2000/svg" xmlns:xlink="http://www.w3.org/1999/xlink" viewBox="0 0 128.58 112.67">
  <defs>
    <style>
      .cls-1 {
        clip-path: url(#clippath);
      }

      .cls-2 {
        fill: none;
      }

      .cls-2, .cls-3, .cls-4, .cls-5, .cls-6 {
        stroke-width: 0px;
      }

      .cls-3 {
        fill: url(#Dégradé_sans_nom_3);
      }

      .cls-4 {
        fill: #4a4a49;
      }

      .cls-5 {
        fill: #1d1d1b;
      }

      .cls-6 {
        fill: #fff;
      }
    </style>
    <clipPath id="clippath">
      <path class="cls-2" d="m25.63,0h77.31c10.57,0,19.16,8.59,19.16,19.16v74.35c0,10.57-8.58,19.16-19.16,19.16H25.63c-10.57,0-19.16-8.58-19.16-19.16V19.16C6.47,8.58,15.06,0,25.63,0Z"/>
    </clipPath>
    <linearGradient id="Dégradé_sans_nom_3" data-name="Dégradé sans nom 3" x1="-38.87" y1="827.59" x2="-37.87" y2="827.59" gradientTransform="translate(4500.86 95749.42) scale(115.63 -115.63)" gradientUnits="userSpaceOnUse">
      <stop offset="0" stop-color="#006f7a"/>
      <stop offset="1" stop-color="#3bb396"/>
    </linearGradient>
  </defs>
  <g id="Calque_1-2" data-name="Calque 1">
    <g>
      <g class="cls-1">
        <rect class="cls-3" x="6.47" width="115.63" height="112.67"/>
      </g>
      <rect class="cls-5" y="50.72" width="128.58" height="26.17"/>
      <g>
        <path class="cls-6" d="m27.85,34.79v-.05c0-4.95,3.73-9.01,9.08-9.01,3.29,0,5.25,1.1,6.87,2.69l-2.44,2.81c-1.34-1.22-2.71-1.97-4.45-1.97-2.94,0-5.05,2.44-5.05,5.43v.05c0,2.99,2.07,5.48,5.05,5.48,1.99,0,3.21-.8,4.58-2.04l2.44,2.46c-1.79,1.92-3.78,3.11-7.14,3.11-5.13,0-8.93-3.96-8.93-8.96Z"/>
        <path class="cls-6" d="m46.19,46.58l1.27-2.74c.5.3,1.12.52,1.62.52.65,0,1-.2,1.32-.87l-5.23-13.39h4.01l3.04,9.08,2.91-9.08h3.93l-5.13,13.66c-1.02,2.71-2.12,3.73-4.38,3.73-1.37,0-2.39-.35-3.36-.92Z"/>
        <path class="cls-6" d="m65.08,41.7v1.74h-3.78v-18.17h3.78v6.74c.92-1.24,2.19-2.17,4.16-2.17,3.11,0,6.07,2.44,6.07,6.89v.05c0,4.46-2.91,6.89-6.07,6.89-2.02,0-3.26-.92-4.16-1.99Zm6.45-4.9v-.05c0-2.21-1.49-3.68-3.26-3.68s-3.24,1.47-3.24,3.68v.05c0,2.22,1.47,3.68,3.24,3.68s3.26-1.44,3.26-3.68Z"/>
        <path class="cls-6" d="m77.46,36.85v-.05c0-3.81,2.71-6.94,6.59-6.94,4.46,0,6.5,3.46,6.5,7.24,0,.3-.02.65-.05,1h-9.28c.37,1.72,1.57,2.61,3.26,2.61,1.27,0,2.19-.4,3.24-1.37l2.17,1.92c-1.24,1.54-3.04,2.49-5.45,2.49-4.01,0-6.97-2.81-6.97-6.89Zm9.41-1.12c-.22-1.69-1.22-2.84-2.81-2.84s-2.59,1.12-2.89,2.84h5.7Z"/>
        <path class="cls-6" d="m93.36,30.11h3.78v2.69c.77-1.84,2.02-3.04,4.26-2.94v3.96h-.2c-2.51,0-4.06,1.52-4.06,4.7v4.93h-3.78v-13.34Z"/>
      </g>
      <g>
        <path class="cls-6" d="m33.17,59.8h-5.13v-4.93h16.08v4.93h-5.13v12.49h-5.82v-12.49Z"/>
        <path class="cls-6" d="m44.3,63.63v-.05c0-5.05,4.16-9.08,9.53-9.08s9.48,3.98,9.48,9.03v.05c0,5.05-4.16,9.08-9.53,9.08s-9.48-3.98-9.48-9.03Zm13.14,0v-.05c0-2.07-1.42-3.93-3.66-3.93s-3.61,1.84-3.61,3.88v.05c0,2.07,1.42,3.93,3.66,3.93s3.61-1.84,3.61-3.88Z"/>
        <path class="cls-6" d="m64.76,64.48v-9.61h5.92v9.53c0,2.17,1.12,3.09,2.69,3.09s2.69-.85,2.69-2.96v-9.66h5.92v9.48c0,5.95-3.46,8.29-8.66,8.29s-8.56-2.39-8.56-8.16Z"/>
        <path class="cls-6" d="m83.83,54.87h8.51c3.09,0,5.05.77,6.27,1.99,1.05,1.05,1.59,2.34,1.59,4.13v.05c0,2.54-1.32,4.31-3.43,5.33l4.06,5.92h-6.64l-3.29-4.98h-1.24v4.98h-5.82v-17.42Zm8.34,8.29c1.39,0,2.24-.62,2.24-1.69v-.05c0-1.12-.87-1.67-2.21-1.67h-2.54v3.41h2.51Z"/>
      </g>
      <g>
        <path class="cls-6" d="m27.36,82.13h.56v4.42h2.78v.51h-3.33v-4.93Z"/>
        <path class="cls-6" d="m31.35,86.01h0c0-.8.63-1.21,1.56-1.21.47,0,.79.06,1.11.15v-.11c0-.65-.39-.99-1.08-.99-.43,0-.77.11-1.11.26l-.16-.44c.4-.18.79-.31,1.33-.31s.92.14,1.18.4.38.61.38,1.07v2.23h-.54v-.54c-.25.32-.67.62-1.31.62-.68,0-1.36-.39-1.36-1.14Zm2.68-.28v-.34c-.27-.08-.62-.16-1.06-.16-.68,0-1.06.3-1.06.73h0c0,.47.42.74.92.74.67,0,1.21-.4,1.21-.98Z"/>
        <path class="cls-6" d="m37.6,85.26h0c0-1.04.8-1.92,1.87-1.92.69,0,1.12.29,1.46.65l-.36.38c-.29-.3-.61-.55-1.11-.55-.74,0-1.3.63-1.3,1.41h0c0,.8.58,1.43,1.34,1.43.47,0,.82-.23,1.11-.54l.35.32c-.37.41-.8.7-1.49.7-1.06,0-1.87-.87-1.87-1.89Z"/>
        <path class="cls-6" d="m41.61,88.04l.18-.43c.18.09.34.13.57.13.32,0,.53-.17.75-.68l-1.66-3.63h.6l1.33,3.04,1.17-3.04h.58l-1.53,3.76c-.31.75-.66,1.03-1.21,1.03-.3,0-.53-.06-.78-.18Z"/>
        <path class="cls-6" d="m46.53,86.37v.7h-.54v-5.15h.54v2.23c.3-.44.73-.81,1.4-.81.87,0,1.74.69,1.74,1.89h0c0,1.21-.86,1.91-1.74,1.91-.68,0-1.11-.37-1.4-.78Zm2.58-1.11h0c0-.87-.59-1.42-1.28-1.42s-1.32.57-1.32,1.4h0c0,.86.64,1.42,1.32,1.42s1.28-.52,1.28-1.4Z"/>
        <path class="cls-6" d="m52.27,86.68c.5,0,.85-.2,1.15-.51l.34.3c-.37.41-.81.68-1.5.68-1,0-1.82-.77-1.82-1.9,0-1.06.74-1.9,1.75-1.9,1.08,0,1.7.86,1.7,1.93,0,.05,0,.11,0,.19h-2.89c.08.77.64,1.21,1.28,1.21Zm1.06-1.65c-.06-.66-.44-1.23-1.16-1.23-.63,0-1.11.52-1.18,1.23h2.35Z"/>
        <path class="cls-6" d="m54.83,83.42h.54v.95c.27-.61.8-1.04,1.49-1.02v.58h-.04c-.8,0-1.45.57-1.45,1.67v1.45h-.54v-3.64Z"/>
        <path class="cls-6" d="m57.39,86.6l.27-.39c.39.3.83.47,1.26.47s.75-.23.75-.58h0c0-.38-.43-.52-.91-.66-.57-.16-1.21-.36-1.21-1.03h0c0-.64.52-1.06,1.24-1.06.44,0,.94.16,1.31.4l-.25.41c-.34-.22-.73-.35-1.08-.35-.43,0-.71.23-.71.53h0c0,.36.45.49.94.64.56.17,1.17.39,1.17,1.04h0c0,.7-.57,1.11-1.3,1.11-.52,0-1.1-.2-1.51-.54Z"/>
        <path class="cls-6" d="m62.81,86.68c.5,0,.85-.2,1.15-.51l.34.3c-.37.41-.81.68-1.5.68-1,0-1.82-.77-1.82-1.9,0-1.06.74-1.9,1.75-1.9,1.08,0,1.7.86,1.7,1.93,0,.05,0,.11,0,.19h-2.89c.08.77.64,1.21,1.28,1.21Zm1.06-1.65c-.06-.66-.44-1.23-1.16-1.23-.63,0-1.11.52-1.18,1.23h2.35Zm-.71-3.18l.56.26-.8.76h-.42l.66-1.02Z"/>
        <path class="cls-6" d="m65.14,85.26h0c0-1.04.8-1.92,1.87-1.92.69,0,1.12.29,1.46.65l-.36.38c-.29-.3-.61-.55-1.11-.55-.74,0-1.3.63-1.3,1.41h0c0,.8.58,1.43,1.34,1.43.47,0,.82-.23,1.11-.54l.35.32c-.37.41-.8.7-1.49.7-1.06,0-1.87-.87-1.87-1.89Z"/>
        <path class="cls-6" d="m69.34,85.69v-2.26h.54v2.13c0,.68.37,1.1,1.01,1.1s1.09-.46,1.09-1.14v-2.09h.54v3.64h-.54v-.63c-.25.39-.62.71-1.25.71-.88,0-1.4-.59-1.4-1.46Z"/>
        <path class="cls-6" d="m73.74,83.42h.54v.95c.27-.61.8-1.04,1.49-1.02v.58h-.04c-.8,0-1.45.57-1.45,1.67v1.45h-.54v-3.64Z"/>
        <path class="cls-6" d="m76.6,82.03h.62v.6h-.62v-.6Zm.04,1.4h.54v3.64h-.54v-3.64Z"/>
        <path class="cls-6" d="m78.63,86.1v-2.2h-.51v-.48h.51v-1.1h.54v1.1h1.16v.48h-1.16v2.13c0,.44.25.61.61.61.18,0,.34-.04.53-.13v.47c-.19.1-.39.16-.66.16-.58,0-1.03-.29-1.03-1.03Z"/>
        <path class="cls-6" d="m82.79,86.68c.5,0,.85-.2,1.15-.51l.34.3c-.37.41-.81.68-1.5.68-1,0-1.82-.77-1.82-1.9,0-1.06.74-1.9,1.75-1.9,1.08,0,1.7.86,1.7,1.93,0,.05,0,.11,0,.19h-2.89c.08.77.64,1.21,1.28,1.21Zm1.06-1.65c-.06-.66-.44-1.23-1.16-1.23-.63,0-1.11.52-1.18,1.23h2.35Zm-.71-3.18l.56.26-.8.76h-.42l.66-1.02Z"/>
        <path class="cls-6" d="m87.47,83.42h.54v.73c.3-.44.73-.81,1.4-.81.87,0,1.74.69,1.74,1.89h0c0,1.21-.86,1.91-1.74,1.91-.68,0-1.11-.37-1.4-.78v1.83h-.54v-4.77Zm3.12,1.83h0c0-.87-.59-1.42-1.28-1.42s-1.32.57-1.32,1.4h0c0,.86.64,1.42,1.32,1.42s1.28-.52,1.28-1.4Z"/>
        <path class="cls-6" d="m92.15,83.42h.54v.95c.27-.61.8-1.04,1.49-1.02v.58h-.04c-.8,0-1.45.57-1.45,1.67v1.45h-.54v-3.64Z"/>
        <path class="cls-6" d="m96.46,86.68c.5,0,.85-.2,1.15-.51l.34.3c-.37.41-.81.68-1.5.68-1,0-1.82-.77-1.82-1.9,0-1.06.74-1.9,1.75-1.9,1.08,0,1.7.86,1.7,1.93,0,.05,0,.11,0,.19h-2.89c.08.77.64,1.21,1.28,1.21Zm1.06-1.65c-.06-.66-.44-1.23-1.16-1.23-.63,0-1.11.52-1.18,1.23h2.35Zm-2.16-2.92l.56-.26.66,1.02h-.42l-.8-.76Z"/>
        <path class="cls-6" d="m98.73,86.6l.27-.39c.39.3.83.47,1.26.47s.75-.23.75-.58h0c0-.38-.43-.52-.91-.66-.57-.16-1.21-.36-1.21-1.03h0c0-.64.52-1.06,1.24-1.06.44,0,.94.16,1.31.4l-.25.41c-.34-.22-.73-.35-1.08-.35-.43,0-.71.23-.71.53h0c0,.36.45.49.94.64.56.17,1.17.39,1.17,1.04h0c0,.7-.57,1.11-1.3,1.11-.52,0-1.1-.2-1.51-.54Z"/>
      </g>
      <g>
        <path class="cls-6" d="m43.41,93.71h0c0-1.21.87-1.91,1.74-1.91.68,0,1.11.37,1.4.78v-2.2h.54v5.15h-.54v-.73c-.3.44-.73.81-1.4.81-.87,0-1.74-.69-1.74-1.89Zm3.16,0h0c0-.85-.64-1.42-1.32-1.42s-1.28.52-1.28,1.4h0c0,.87.59,1.42,1.28,1.42s1.32-.57,1.32-1.41Z"/>
        <path class="cls-6" d="m49.91,95.14c.5,0,.85-.2,1.15-.51l.34.3c-.37.41-.81.68-1.5.68-1,0-1.82-.77-1.82-1.9,0-1.06.74-1.9,1.75-1.9,1.08,0,1.7.86,1.7,1.93,0,.05,0,.11,0,.19h-2.89c.08.77.64,1.21,1.28,1.21Zm1.06-1.65c-.06-.66-.44-1.23-1.16-1.23-.63,0-1.11.52-1.18,1.23h2.35Z"/>
        <path class="cls-6" d="m54.36,93.72h0c0-1.04.8-1.92,1.87-1.92.69,0,1.12.29,1.46.65l-.36.38c-.29-.3-.61-.55-1.11-.55-.74,0-1.3.63-1.3,1.41h0c0,.8.58,1.43,1.34,1.43.47,0,.83-.23,1.11-.54l.35.32c-.37.41-.8.7-1.49.7-1.06,0-1.87-.87-1.87-1.89Z"/>
        <path class="cls-6" d="m58.61,90.38h.54v2.14c.24-.39.62-.71,1.25-.71.88,0,1.4.59,1.4,1.46v2.26h-.54v-2.13c0-.68-.37-1.1-1.01-1.1s-1.09.46-1.09,1.14v2.09h-.54v-5.15Z"/>
        <path class="cls-6" d="m64.56,95.14c.5,0,.85-.2,1.15-.51l.34.3c-.37.41-.81.68-1.5.68-1,0-1.82-.77-1.82-1.9,0-1.06.74-1.9,1.75-1.9,1.08,0,1.7.86,1.7,1.93,0,.05,0,.11,0,.19h-2.89c.08.77.64,1.21,1.28,1.21Zm1.06-1.65c-.06-.66-.44-1.23-1.16-1.23-.63,0-1.11.52-1.18,1.23h2.35Z"/>
        <path class="cls-6" d="m66.81,95.18l2.42-2.84h-2.33v-.46h3.07v.35l-2.43,2.84h2.43v.46h-3.16v-.35Z"/>
        <path class="cls-6" d="m73.05,91.88h.54v.61c.24-.36.56-.69,1.18-.69s.97.32,1.17.73c.26-.4.65-.73,1.28-.73.84,0,1.35.56,1.35,1.47v2.26h-.54v-2.13c0-.71-.35-1.1-.94-1.1-.55,0-1.01.41-1.01,1.13v2.1h-.54v-2.14c0-.68-.36-1.09-.94-1.09s-1.02.48-1.02,1.15v2.08h-.54v-3.64Z"/>
        <path class="cls-6" d="m79.53,93.72h0c0-1.04.8-1.92,1.9-1.92s1.9.86,1.9,1.89h0c0,1.04-.81,1.92-1.91,1.92s-1.89-.86-1.89-1.89Zm3.24,0h0c0-.8-.58-1.44-1.35-1.44s-1.33.64-1.33,1.41h0c0,.8.58,1.43,1.35,1.43s1.34-.63,1.34-1.4Z"/>
        <path class="cls-6" d="m84.32,90.49h.62v.6h-.62v-.6Zm.04,1.4h.54v3.64h-.54v-3.64Z"/>
      </g>
      <g>
        <polygon class="cls-4" points="122.14 50.68 122.14 44.74 128.58 50.72 122.14 50.68"/>
        <polygon class="cls-4" points="6.46 50.68 6.46 44.74 .02 50.72 6.46 50.68"/>
      </g>
    </g>
  </g>
</svg>